HIERARCHY
ROOT Hips
{
	OFFSET 0.000000 105.849998 0.000017
	CHANNELS 6 Xposition Yposition Zposition Yrotation Xrotation Zrotation
	JOINT RightUpLeg
	{
		OFFSET -11.500000 -1.849998 -0.000000
		CHANNELS 3 Yrotation Xrotation Zrotation
		JOINT RightLeg
		{
			OFFSET 0.000000 -48.000000 -0.000008
			CHANNELS 3 Yrotation Xrotation Zrotation
			JOINT RightFoot
			{
				OFFSET 0.000000 -48.000000 -0.000008
				CHANNELS 3 Yrotation Xrotation Zrotation
				End Site
				{
					OFFSET 0.000000 -8.000003 19.599998
				}
			}
		}
	}
	JOINT LeftUpLeg
	{
		OFFSET 11.500000 -1.849998 -0.000000
		CHANNELS 3 Yrotation Xrotation Zrotation
		JOINT LeftLeg
		{
			OFFSET 0.000000 -48.000000 -0.000008
			CHANNELS 3 Yrotation Xrotation Zrotation
			JOINT LeftFoot
			{
				OFFSET 0.000000 -48.000000 -0.000008
				CHANNELS 3 Yrotation Xrotation Zrotation
				End Site
				{
					OFFSET 0.000000 -8.000003 19.599998
				}
			}
		}
	}
	JOINT Spine
	{
		OFFSET 0.000000 16.653999 0.000003
		CHANNELS 3 Yrotation Xrotation Zrotation
		JOINT Spine1
		{
			OFFSET 0.000000 11.311996 0.000002
			CHANNELS 3 Yrotation Xrotation Zrotation
			JOINT Spine2
			{
				OFFSET 0.000000 11.779999 0.000002
				CHANNELS 3 Yrotation Xrotation Zrotation
				JOINT Spine3
				{
					OFFSET 0.000000 11.311996 0.000002
					CHANNELS 3 Yrotation Xrotation Zrotation
					JOINT Neck
					{
						OFFSET 0.000000 12.091003 0.000002
						CHANNELS 3 Yrotation Xrotation Zrotation
						JOINT Head
						{
							OFFSET 0.000000 9.000000 0.000001
							CHANNELS 3 Yrotation Xrotation Zrotation
							End Site
							{
								OFFSET 0.000000 18.000000 0.000003
							}
						}
					}
					JOINT RightShoulder
					{
						OFFSET -3.500000 8.061005 0.000001
						CHANNELS 3 Yrotation Xrotation Zrotation
						JOINT RightArm
						{
							OFFSET -14.000000 0.000000 -0.000000
							CHANNELS 3 Yrotation Xrotation Zrotation
							JOINT RightForeArm
							{
								OFFSET -29.000000 0.000000 -0.000000
								CHANNELS 3 Yrotation Xrotation Zrotation
								JOINT RightHand
								{
									OFFSET -28.000000 0.000000 -0.000000
									CHANNELS 3 Yrotation Xrotation Zrotation
									JOINT RightHandThumb1
									{
										OFFSET -2.702003 0.205994 3.388000
										CHANNELS 3 Yrotation Xrotation Zrotation
										JOINT RightHandThumb2
										{
											OFFSET -3.998001 0.000000 -0.000000
											CHANNELS 3 Yrotation Xrotation Zrotation
											JOINT RightHandThumb3
											{
												OFFSET -2.778000 0.000000 -0.000000
												CHANNELS 3 Yrotation Xrotation Zrotation
												End Site
												{
													OFFSET -2.381996 0.000000 -0.000000
												}
											}
										}
									}
									JOINT RightInHandIndex
									{
										OFFSET -3.500000 0.552002 2.148000
										CHANNELS 3 Yrotation Xrotation Zrotation
										JOINT RightHandIndex1
										{
											OFFSET -5.664001 -0.098999 1.085000
											CHANNELS 3 Yrotation Xrotation Zrotation
											JOINT RightHandIndex2
											{
												OFFSET -3.930000 0.000000 -0.000000
												CHANNELS 3 Yrotation Xrotation Zrotation
												JOINT RightHandIndex3
												{
													OFFSET -2.227997 0.000000 -0.000000
													CHANNELS 3 Yrotation Xrotation Zrotation
													End Site
													{
														OFFSET -1.959999 0.000000 -0.000000
													}
												}
											}
										}
									}
									JOINT RightInHandMiddle
									{
										OFFSET -3.671997 0.561996 0.822000
										CHANNELS 3 Yrotation Xrotation Zrotation
										JOINT RightHandMiddle1
										{
											OFFSET -5.617996 -0.091003 0.341000
											CHANNELS 3 Yrotation Xrotation Zrotation
											JOINT RightHandMiddle2
											{
												OFFSET -4.288002 0.000000 -0.000000
												CHANNELS 3 Yrotation Xrotation Zrotation
												JOINT RightHandMiddle3
												{
													OFFSET -2.688004 0.000000 -0.000000
													CHANNELS 3 Yrotation Xrotation Zrotation
													End Site
													{
														OFFSET -2.143997 0.000000 -0.000000
													}
												}
											}
										}
									}
									JOINT RightInHandRing
									{
										OFFSET -3.653999 0.584000 -0.140000
										CHANNELS 3 Yrotation Xrotation Zrotation
										JOINT RightHandRing1
										{
											OFFSET -5.031998 -0.024002 -0.520000
											CHANNELS 3 Yrotation Xrotation Zrotation
											JOINT RightHandRing2
											{
												OFFSET -3.737000 0.000000 -0.000000
												CHANNELS 3 Yrotation Xrotation Zrotation
												JOINT RightHandRing3
												{
													OFFSET -2.593002 0.000000 -0.000000
													CHANNELS 3 Yrotation Xrotation Zrotation
													End Site
													{
														OFFSET -2.015999 0.000000 -0.000000
													}
												}
											}
										}
									}
									JOINT RightInHandPinky
									{
										OFFSET -3.431999 0.509995 -1.305000
										CHANNELS 3 Yrotation Xrotation Zrotation
										JOINT RightHandPinky1
										{
											OFFSET -4.496002 -0.024002 -1.184000
											CHANNELS 3 Yrotation Xrotation Zrotation
											JOINT RightHandPinky2
											{
												OFFSET -2.993004 0.000000 -0.000000
												CHANNELS 3 Yrotation Xrotation Zrotation
												JOINT RightHandPinky3
												{
													OFFSET -1.890999 0.000000 -0.000000
													CHANNELS 3 Yrotation Xrotation Zrotation
													End Site
													{
														OFFSET -1.786003 0.000000 -0.000000
													}
												}
											}
										}
									}
								}
							}
						}
					}
					JOINT LeftShoulder
					{
						OFFSET 3.500000 8.061005 0.000001
						CHANNELS 3 Yrotation Xrotation Zrotation
						JOINT LeftArm
						{
							OFFSET 14.000000 0.000000 -0.000000
							CHANNELS 3 Yrotation Xrotation Zrotation
							JOINT LeftForeArm
							{
								OFFSET 29.000000 0.000000 -0.000000
								CHANNELS 3 Yrotation Xrotation Zrotation
								JOINT LeftHand
								{
									OFFSET 28.000000 0.000000 -0.000000
									CHANNELS 3 Yrotation Xrotation Zrotation
									JOINT LeftHandThumb1
									{
										OFFSET 2.702003 0.205994 3.388000
										CHANNELS 3 Yrotation Xrotation Zrotation
										JOINT LeftHandThumb2
										{
											OFFSET 3.998001 0.000000 -0.000000
											CHANNELS 3 Yrotation Xrotation Zrotation
											JOINT LeftHandThumb3
											{
												OFFSET 2.778000 0.000000 -0.000000
												CHANNELS 3 Yrotation Xrotation Zrotation
												End Site
												{
													OFFSET 2.381996 0.000000 -0.000000
												}
											}
										}
									}
									JOINT LeftInHandIndex
									{
										OFFSET 3.500000 0.552002 2.148000
										CHANNELS 3 Yrotation Xrotation Zrotation
										JOINT LeftHandIndex1
										{
											OFFSET 5.664001 -0.098999 1.085000
											CHANNELS 3 Yrotation Xrotation Zrotation
											JOINT LeftHandIndex2
											{
												OFFSET 3.930000 0.000000 -0.000000
												CHANNELS 3 Yrotation Xrotation Zrotation
												JOINT LeftHandIndex3
												{
													OFFSET 2.227997 0.000000 -0.000000
													CHANNELS 3 Yrotation Xrotation Zrotation
													End Site
													{
														OFFSET 1.959999 0.000000 -0.000000
													}
												}
											}
										}
									}
									JOINT LeftInHandMiddle
									{
										OFFSET 3.671997 0.561996 0.822000
										CHANNELS 3 Yrotation Xrotation Zrotation
										JOINT LeftHandMiddle1
										{
											OFFSET 5.617996 -0.091003 0.341000
											CHANNELS 3 Yrotation Xrotation Zrotation
											JOINT LeftHandMiddle2
											{
												OFFSET 4.288002 0.000000 -0.000000
												CHANNELS 3 Yrotation Xrotation Zrotation
												JOINT LeftHandMiddle3
												{
													OFFSET 2.688004 0.000000 -0.000000
													CHANNELS 3 Yrotation Xrotation Zrotation
													End Site
													{
														OFFSET 2.143997 0.000000 -0.000000
													}
												}
											}
										}
									}
									JOINT LeftInHandRing
									{
										OFFSET 3.653999 0.584000 -0.140000
										CHANNELS 3 Yrotation Xrotation Zrotation
										JOINT LeftHandRing1
										{
											OFFSET 5.031998 -0.024002 -0.520000
											CHANNELS 3 Yrotation Xrotation Zrotation
											JOINT LeftHandRing2
											{
												OFFSET 3.737000 0.000000 -0.000000
												CHANNELS 3 Yrotation Xrotation Zrotation
												JOINT LeftHandRing3
												{
													OFFSET 2.593002 0.000000 -0.000000
													CHANNELS 3 Yrotation Xrotation Zrotation
													End Site
													{
														OFFSET 2.015999 0.000000 -0.000000
													}
												}
											}
										}
									}
									JOINT LeftInHandPinky
									{
										OFFSET 3.431999 0.509995 -1.305000
										CHANNELS 3 Yrotation Xrotation Zrotation
										JOINT LeftHandPinky1
										{
											OFFSET 4.496002 -0.024002 -1.184000
											CHANNELS 3 Yrotation Xrotation Zrotation
											JOINT LeftHandPinky2
											{
												OFFSET 2.993004 0.000000 -0.000000
												CHANNELS 3 Yrotation Xrotation Zrotation
												JOINT LeftHandPinky3
												{
													OFFSET 1.890999 0.000000 -0.000000
													CHANNELS 3 Yrotation Xrotation Zrotation
													End Site
													{
														OFFSET 1.786003 0.000000 -0.000000
													}
												}
											}
										}
									}
								}
							}
						}
					}
				}
			}
		}
	}
}
MOTION
Frames: 5
Frame Time: 0.041667
0.000000 -0.000001 51.274857 0.292400 2.652036 6.296403 -1.127095 -25.215259 -9.269029 0.205798 8.386350 -0.448720 2.781331 -14.264212 3.983700 1.698896 13.558494 -3.273862 -0.108043 4.077936 0.221431 -3.343129 -2.664584 -2.355957 -0.228537 -0.007085 -4.911690 0.000000 0.000000 -0.000000 0.000000 0.000000 -0.000000 0.000000 0.000000 -0.000000 -0.047891 -0.000459 -1.028057 0.000000 -3.131922 0.000017 -40.928802 5.354345 -6.621785 -37.023993 8.194704 -1.893843 -20.720760 13.736285 -5.032529 -0.086807 -0.615106 0.505220 0.000001 0.000002 0.000001 -0.000005 -0.000001 -0.000000 -0.000002 -0.000001 -0.000000 -0.000004 -0.000003 0.000001 0.000005 0.000000 -0.000001 0.000005 0.000002 0.000001 -0.000001 0.000002 -0.000000 0.000001 -0.000001 0.000003 -0.000000 0.000000 -0.000002 0.000001 0.000001 -0.000000 0.000004 0.000003 -0.000002 0.000002 -0.000000 -0.000001 -0.000000 -0.000004 -0.000001 0.000002 -0.000004 -0.000000 0.000002 -0.000001 -0.000001 -0.000003 -0.000002 0.000002 -0.000002 -0.000001 0.000003 0.000005 0.000001 -0.000001 -0.000000 -0.000002 0.000001 40.324559 -5.460956 -6.622935 37.326635 -10.360527 -4.203464 23.492494 -14.610943 -19.515563 4.439839 -2.353685 -11.466278 0.000002 -0.000001 0.000001 -0.000000 0.000001 -0.000001 -0.000009 0.000002 -0.000001 -0.000014 -0.000005 -0.000002 0.000001 0.000002 -0.000004 0.000001 0.000000 0.000004 0.000001 0.000000 -0.000001 -0.000012 0.000000 -0.000003 -0.000003 0.000001 -0.000001 -0.000001 0.000002 -0.000000 -0.000004 0.000003 0.000001 -0.000005 -0.000002 0.000000 0.000003 -0.000001 0.000000 0.000002 -0.000002 0.000000 -0.000003 -0.000001 -0.000001 0.000009 0.000005 0.000003 0.000002 -0.000003 0.000001 -0.000001 0.000001 0.000002 -0.000006 0.000000 0.000001 
-0.000000 -0.000001 50.759933 0.304359 2.651165 6.554601 -0.935248 -25.818661 -9.534994 0.225452 9.350792 -0.498915 2.609355 -17.000928 4.010208 1.747179 11.931540 -3.611008 -0.257679 11.023319 0.585632 -3.368709 -2.953818 -2.322885 -0.237893 -0.006155 -5.113270 0.000000 0.000000 -0.000000 0.000000 0.000000 -0.000000 0.000000 0.000000 -0.000000 -0.047859 -0.000459 -1.070048 0.000000 -3.131922 0.000021 -40.994273 5.571612 -6.895768 -37.038511 8.573965 -2.019403 -20.792233 14.310658 -5.534073 0.000091 -0.000026 -0.000034 0.000003 0.000003 0.000001 -0.000005 -0.000002 -0.000001 -0.000000 -0.000002 -0.000001 -0.000002 -0.000000 0.000000 0.000001 -0.000001 -0.000000 0.000004 0.000000 -0.000000 -0.000003 0.000001 0.000000 0.000005 0.000002 0.000003 -0.000001 0.000000 0.000000 -0.000001 -0.000001 -0.000003 0.000003 0.000000 -0.000003 0.000002 0.000001 -0.000002 0.000001 -0.000001 0.000000 0.000002 -0.000001 -0.000000 0.000002 -0.000002 -0.000003 -0.000002 0.000000 -0.000000 -0.000000 0.000001 0.000001 0.000005 0.000001 0.000002 -0.000001 0.000001 -0.000001 40.364861 -5.681133 -6.897074 37.353939 -10.739115 -4.331901 23.679286 -15.160600 -20.047811 4.599485 -2.936826 -12.002716 0.000001 0.000003 -0.000005 0.000003 0.000002 0.000001 -0.000005 0.000000 0.000002 -0.000015 -0.000005 -0.000002 -0.000003 0.000001 -0.000000 -0.000001 0.000000 0.000003 -0.000000 -0.000001 -0.000000 -0.000010 0.000000 -0.000000 -0.000002 0.000006 -0.000001 -0.000003 0.000002 -0.000001 -0.000005 0.000002 0.000002 -0.000008 -0.000001 -0.000001 0.000002 -0.000001 0.000002 0.000002 -0.000001 0.000001 -0.000004 -0.000004 -0.000004 0.000005 0.000002 -0.000001 -0.000002 -0.000001 -0.000002 0.000000 0.000003 -0.000003 -0.000006 0.000001 -0.000000 
-0.000000 -0.000001 50.210777 0.290832 2.651001 6.262528 -0.448147 -29.794129 -9.155541 0.380418 19.190342 -1.004724 4.133268 2.802754 3.653703 1.975740 10.057144 -3.406661 -0.377978 18.973395 0.993934 -3.492257 -1.277693 -2.267106 -0.228271 -0.004817 -4.885172 -0.000000 0.000000 -0.000000 -0.000000 0.000000 -0.000000 -0.000000 0.000000 -0.000000 -0.047634 -0.000459 -1.022553 0.000000 -3.131922 0.000025 -40.920773 5.325810 -6.585850 -37.022132 8.144939 -1.877388 -20.711794 13.660800 -4.966806 -0.110342 2.916209 -0.804558 0.000002 -0.000003 -0.000001 -0.000004 -0.000000 -0.000002 -0.000001 -0.000000 0.000000 -0.000001 -0.000002 -0.000000 0.000006 0.000000 0.000001 0.000004 0.000000 -0.000000 -0.000001 0.000001 0.000000 0.000003 -0.000001 0.000002 -0.000000 -0.000001 -0.000001 -0.000000 -0.000001 0.000001 0.000002 0.000001 0.000002 0.000003 -0.000004 -0.000001 0.000001 -0.000004 -0.000001 0.000001 -0.000002 -0.000000 0.000002 -0.000001 -0.000001 -0.000002 -0.000003 0.000001 0.000000 0.000002 -0.000003 0.000005 -0.000000 0.000000 -0.000001 0.000000 0.000002 40.319495 -5.432050 -6.587005 37.323026 -10.310850 -4.186636 23.468366 -14.538637 -19.445919 3.801655 -5.799530 -13.080473 -0.000001 0.000003 -0.000002 0.000003 -0.000002 0.000001 -0.000007 -0.000003 0.000000 -0.000018 -0.000005 0.000000 0.000000 0.000002 0.000005 -0.000002 0.000000 0.000003 0.000000 0.000000 0.000002 -0.000013 0.000004 -0.000001 -0.000002 0.000003 -0.000001 -0.000002 0.000001 -0.000001 -0.000004 0.000000 0.000000 -0.000011 -0.000001 -0.000000 0.000003 0.000005 -0.000000 0.000001 -0.000001 -0.000001 -0.000001 0.000001 -0.000006 0.000004 0.000005 -0.000002 0.000000 -0.000002 0.000001 0.000001 0.000000 0.000002 -0.000007 0.000002 -0.000001 
-0.000000 -0.000001 49.628929 0.249310 2.654161 5.366666 -0.610511 -31.802689 -7.909021 0.449076 29.131488 -1.524048 4.043658 -0.423595 3.306412 2.359362 7.722137 -2.623144 -0.444952 27.608405 1.444842 -3.732532 3.149822 -2.196075 -0.194835 -0.003480 -4.185967 -0.000000 -0.000000 0.000000 -0.000000 -0.000000 0.000000 -0.000000 -0.000000 0.000000 -0.040840 -0.000459 -0.876683 0.000000 -3.131922 0.000029 -40.713115 4.568696 -5.637379 -36.978593 6.827731 -1.443081 -20.506579 11.654628 -3.234181 -0.484495 7.780254 -1.661316 0.000001 -0.000000 -0.000001 -0.000004 0.000000 -0.000001 -0.000000 -0.000001 0.000000 -0.000003 -0.000005 0.000001 0.000004 0.000000 -0.000000 0.000005 0.000002 -0.000003 -0.000002 0.000000 -0.000001 0.000004 -0.000001 0.000000 -0.000001 -0.000001 0.000001 -0.000000 -0.000000 -0.000000 0.000002 0.000001 -0.000001 0.000003 0.000001 0.000001 -0.000000 -0.000000 -0.000004 0.000002 0.000000 0.000001 0.000001 -0.000000 -0.000001 -0.000000 0.000000 0.000001 -0.000001 -0.000001 -0.000002 0.000005 0.000003 -0.000003 -0.000001 0.000000 0.000001 40.197651 -4.665801 -5.638151 37.235278 -8.995766 -3.743346 22.864371 -12.609873 -17.616470 2.011510 -10.614238 -14.341150 0.000005 -0.000000 0.000001 0.000002 -0.000001 0.000004 -0.000008 -0.000002 0.000001 -0.000014 -0.000008 -0.000003 -0.000002 -0.000001 0.000002 0.000000 0.000000 0.000004 -0.000003 -0.000002 0.000003 -0.000008 -0.000002 -0.000004 -0.000004 0.000006 0.000000 -0.000001 0.000003 0.000003 -0.000006 0.000001 0.000003 -0.000006 -0.000000 0.000001 0.000003 -0.000003 -0.000003 0.000002 -0.000001 0.000001 -0.000004 0.000004 -0.000001 0.000008 0.000000 -0.000001 -0.000003 -0.000003 0.000000 -0.000002 -0.000004 0.000001 -0.000005 -0.000003 0.000002 
-0.000000 -0.000000 49.406578 0.197020 2.657456 4.239624 -1.331825 -30.509096 -6.359458 0.444265 34.352816 -1.817135 3.705365 -6.905562 3.031427 2.710111 5.640009 -1.606642 -0.446717 33.752237 1.783277 -4.045975 10.112894 -2.156718 -0.153953 -0.002549 -3.306525 0.000000 -0.000000 -0.000000 0.000000 -0.000000 -0.000000 0.000000 -0.000000 -0.000000 -0.032280 -0.000459 -0.692917 0.000000 -3.131922 0.000032 -40.487736 3.610184 -4.448263 -36.938203 5.168323 -0.898981 -20.336885 9.107518 -1.066719 -0.876397 10.147004 -1.589220 0.000002 -0.000002 -0.000001 -0.000004 -0.000002 -0.000001 0.000000 -0.000002 -0.000000 -0.000002 -0.000004 -0.000001 0.000004 -0.000002 0.000001 0.000004 0.000002 -0.000000 -0.000003 0.000000 -0.000001 0.000003 -0.000005 -0.000001 -0.000001 0.000002 -0.000000 -0.000001 -0.000002 0.000001 0.000002 -0.000001 -0.000001 0.000004 -0.000000 -0.000002 0.000000 -0.000001 0.000000 0.000001 -0.000004 0.000000 0.000001 -0.000001 0.000000 -0.000002 -0.000003 0.000002 -0.000001 0.000002 -0.000000 0.000005 0.000002 -0.000001 -0.000001 0.000000 0.000000 40.080219 -3.697768 -4.448689 37.140660 -7.338529 -3.189979 22.195641 -10.142903 -15.347657 1.237059 -12.947370 -14.433030 0.000001 0.000002 0.000002 0.000001 -0.000003 0.000001 -0.000007 0.000000 0.000002 -0.000016 -0.000005 0.000002 -0.000000 -0.000003 0.000004 -0.000001 0.000003 0.000004 -0.000002 0.000000 0.000003 -0.000011 -0.000001 -0.000001 -0.000005 -0.000004 -0.000003 -0.000003 0.000001 0.000001 -0.000007 0.000002 0.000003 -0.000008 -0.000002 -0.000001 0.000005 -0.000001 0.000004 0.000001 0.000000 0.000001 -0.000006 -0.000004 -0.000002 0.000007 0.000002 -0.000001 0.000000 -0.000000 0.000003 0.000000 0.000000 0.000002 -0.000005 0.000002 0.000001 
